# xmcd CD database file
# Copyright (C) 1993-1998 Ti Kan
#
# Track frame offsets:
# 150
# 19385
# 36812
# 66035
# 82085
# 100835
# 121837
# 136497
# 157347
# 181685
# 197887
# 219222
# 242772
# 257585
# 270597
#
# Disc length: 3886 seconds
# Revision: 0
# Processed by: cddbd v1.4b41PL1 Copyright (c) Steve Scherf et al.
# Submitted via: CDSpectrumPro v3.3.331
#
DISCID=d20f2c0f
DTITLE=Various Artist - A World Of Our Own-WDREM 103.9 FM
DYEAR=1900
DGENRE=
TTITLE0=Midnight Oil - Beds Are Burning
TTITLE1=Alison Moyet - Love Resurrection
TTITLE2=Fishbone - Party At Ground Zero
TTITLE3=Psychelic Furs - Love My Way
TTITLE4=Suede - The Drowners
TTITLE5=Kate Bush - Love And Anger
TTITLE6=Soul Asylum - Somebody To Shove
TTITLE7=Big Audio Dynamite - The Bottom Line
TTITLE8=Fishbone - Servitude
TTITLE9=Boomtown Rats - Up All Night
TTITLE10=Shawn Colvin - Round Of Blues
TTITLE11=Midnight Oil - Outbreak Of Love
TTITLE12=Toad The Wet Sprocket - All I Want
TTITLE13=The Bangles - Hero Takes A Fall
TTITLE14=The Boo Radleys - Lazarus
EXTD=
EXTT0=
EXTT1=
EXTT2=
EXTT3=
EXTT4=
EXTT5=
EXTT6=
EXTT7=
EXTT8=
EXTT9=
EXTT10=
EXTT11=
EXTT12=
EXTT13=
EXTT14=
PLAYORDER=
